<svg width="80" height="49" viewBox="0 0 155 49" fill="none" xmlns="http://www.w3.org/2000/svg">
<path d="M81.7747 12.0632C81.7747 13.7934 80.381 15.1872 78.6508 15.1872C76.9206 15.1872 75.5268 13.7934 75.5268 12.0632C75.5268 10.333 76.8725 8.93928 78.6508 8.93928C80.429 8.98734 81.7747 10.3811 81.7747 12.0632ZM68.8945 18.3592V19.1281C68.8945 19.1281 67.4046 17.2057 64.2326 17.2057C58.994 17.2057 54.9088 21.1947 54.9088 26.7217C54.9088 32.2006 58.9459 36.2377 64.2326 36.2377C67.4526 36.2377 68.8945 34.2672 68.8945 34.2672V35.0843C68.8945 35.4688 69.1828 35.7571 69.5673 35.7571H73.4602V17.6863H69.5673C69.1828 17.6863 68.8945 18.0227 68.8945 18.3592ZM68.8945 29.9418C68.1735 30.9991 66.7317 31.9123 65.0015 31.9123C61.9257 31.9123 59.5707 29.9898 59.5707 26.7217C59.5707 23.4536 61.9257 21.5312 65.0015 21.5312C66.6837 21.5312 68.2216 22.4924 68.8945 23.5017V29.9418ZM76.3439 17.6863H80.9577V35.7571H76.3439V17.6863ZM145.263 17.2057C142.091 17.2057 140.601 19.1281 140.601 19.1281V8.98734H135.987V35.7571H139.88C140.265 35.7571 140.553 35.4207 140.553 35.0843V34.2672C140.553 34.2672 142.043 36.2377 145.215 36.2377C150.453 36.2377 154.539 32.2006 154.539 26.7217C154.539 21.2428 150.453 17.2057 145.263 17.2057ZM144.494 31.8642C142.716 31.8642 141.322 30.9511 140.601 29.8937V23.4536C141.322 22.4924 142.86 21.4831 144.494 21.4831C147.57 21.4831 149.925 23.4055 149.925 26.6737C149.925 29.9418 147.57 31.8642 144.494 31.8642ZM133.584 25.0396V35.8052H128.97V25.5683C128.97 22.5885 128.009 21.387 125.414 21.387C124.02 21.387 122.578 22.1079 121.665 23.1652V35.7571H117.051V17.6863H120.704C121.088 17.6863 121.377 18.0227 121.377 18.3592V19.1281C122.722 17.7344 124.501 17.2057 126.279 17.2057C128.297 17.2057 129.98 17.7824 131.325 18.9359C132.959 20.2816 133.584 22.0118 133.584 25.0396ZM105.853 17.2057C102.681 17.2057 101.191 19.1281 101.191 19.1281V8.98734H96.5774V35.7571H100.47C100.855 35.7571 101.143 35.4207 101.143 35.0843V34.2672C101.143 34.2672 102.633 36.2377 105.805 36.2377C111.044 36.2377 115.129 32.2006 115.129 26.7217C115.177 21.2428 111.092 17.2057 105.853 17.2057ZM105.084 31.8642C103.306 31.8642 101.912 30.9511 101.191 29.8937V23.4536C101.912 22.4924 103.45 21.4831 105.084 21.4831C108.16 21.4831 110.515 23.4055 110.515 26.6737C110.515 29.9418 108.16 31.8642 105.084 31.8642ZM92.5884 17.2057C93.9821 17.2057 94.703 17.446 94.703 17.446V21.7234C94.703 21.7234 90.8582 20.4258 88.4551 23.1652V35.8052H83.8413V17.6863H87.7342C88.1187 17.6863 88.4071 18.0227 88.4071 18.3592V19.1281C89.2722 18.1189 91.1465 17.2057 92.5884 17.2057ZM44.6719 34.1231C44.4316 33.5463 44.1913 32.9215 43.951 32.3929C43.5665 31.5278 43.182 30.7108 42.8456 29.9418L42.7975 29.8937C39.4813 22.6846 35.9248 15.3794 32.1761 8.17031L32.0319 7.88195C31.6474 7.16104 31.263 6.39207 30.8785 5.6231C30.3979 4.758 29.9173 3.84485 29.1483 2.97976C27.6104 1.05733 25.3996 0 23.0446 0C20.6416 0 18.4788 1.05733 16.8928 2.88364C16.1719 3.74873 15.6433 4.66188 15.1626 5.52698C14.7782 6.29595 14.3937 7.06492 14.0092 7.78583L13.865 8.07419C10.1643 15.2833 6.55979 22.5885 3.2436 29.7976L3.19554 29.8937C2.85912 30.6627 2.47463 31.4797 2.09015 32.3448C1.84984 32.8735 1.60954 33.4502 1.36924 34.075C0.744449 35.8532 0.552206 37.5354 0.792509 39.2656C1.32118 42.8701 3.72421 45.8979 7.04039 47.2436C8.28997 47.7723 9.58761 48.0126 10.9333 48.0126C11.3178 48.0126 11.7984 47.9645 12.1829 47.9165C13.7689 47.7242 15.4029 47.1956 16.989 46.2824C18.9594 45.177 20.8338 43.591 22.9485 41.2841C25.0631 43.591 26.9856 45.177 28.908 46.2824C30.494 47.1956 32.1281 47.7242 33.7141 47.9165C34.0985 47.9645 34.5791 48.0126 34.9636 48.0126C36.3093 48.0126 37.655 47.7723 38.8565 47.2436C42.2208 45.8979 44.5758 42.822 45.1044 39.2656C45.4889 37.5834 45.2967 35.9013 44.6719 34.1231ZM22.9965 36.6222C20.4013 33.3541 18.7191 30.2782 18.1424 27.6829C17.9021 26.5775 17.854 25.6163 17.9982 24.7512C18.0943 23.9823 18.3827 23.3094 18.7672 22.7327C19.6803 21.4351 21.2183 20.618 22.9965 20.618C24.7748 20.618 26.3608 21.387 27.2259 22.7327C27.6104 23.3094 27.8987 23.9823 27.9948 24.7512C28.139 25.6163 28.091 26.6256 27.8507 27.6829C27.2739 30.2302 25.5918 33.306 22.9965 36.6222ZM42.1727 38.8811C41.8363 41.3802 40.1542 43.5429 37.7992 44.5042C36.6458 44.9848 35.3962 45.129 34.1466 44.9848C32.9451 44.8406 31.7436 44.4561 30.494 43.7352C28.7638 42.774 27.0336 41.2841 25.0151 39.0733C28.1871 35.1804 30.1095 31.6239 30.8304 28.4519C31.1668 26.962 31.2149 25.6163 31.0707 24.3668C30.8785 23.1652 30.4459 22.0598 29.7731 21.0986C28.2832 18.9359 25.784 17.6863 22.9965 17.6863C20.209 17.6863 17.7099 18.984 16.22 21.0986C15.5471 22.0598 15.1146 23.1652 14.9223 24.3668C14.7301 25.6163 14.7782 27.0101 15.1626 28.4519C15.8836 31.6239 17.854 35.2285 20.978 39.1214C19.0075 41.3322 17.2293 42.822 15.4991 43.7833C14.2495 44.5042 13.048 44.8886 11.8465 45.0328C10.5488 45.177 9.29924 44.9848 8.19385 44.5522C5.83888 43.591 4.15675 41.4283 3.82033 38.9291C3.67615 37.7276 3.77227 36.5261 4.25288 35.1804C4.39706 34.6998 4.63736 34.2192 4.87766 33.6425C5.21409 32.8735 5.59857 32.0565 5.98306 31.2394L6.03112 31.1433C9.34731 23.9823 12.9038 16.677 16.6045 9.56407L16.7486 9.27571C17.1331 8.5548 17.5176 7.78583 17.9021 7.06492C18.2866 6.29595 18.7191 5.57504 19.2478 4.95025C20.2571 3.79679 21.6028 3.172 23.0927 3.172C24.5825 3.172 25.9282 3.79679 26.9375 4.95025C27.4662 5.57504 27.8987 6.29595 28.2832 7.06492C28.6677 7.78583 29.0522 8.5548 29.4367 9.27571L29.5808 9.56407C33.2335 16.7251 36.7899 24.0303 40.1061 31.1914V31.2394C40.4906 32.0084 40.827 32.8735 41.2115 33.6425C41.4518 34.2192 41.6921 34.6998 41.8363 35.1804C42.2208 36.43 42.365 37.6315 42.1727 38.8811Z" fill="#666667"/>
</svg>
