<svg width="70" height="42" viewBox="0 0 155 42" fill="none" xmlns="http://www.w3.org/2000/svg">
<path d="M21.6924 39.1156C19.3781 39.522 17.0231 39.6439 14.5869 39.9684L7.15632 18.2052V40.9024C4.84202 41.146 2.73069 41.4708 0.538086 41.7956V0.217773H6.70996L15.1553 23.8087V0.217773H21.6924V39.1156ZM34.4825 15.444C37.0001 15.444 40.8573 15.3222 43.1716 15.3222V21.8186C40.2887 21.8186 36.9188 21.8186 34.4825 21.9404V31.6042C38.2994 31.3607 42.1161 31.0355 45.9732 30.9137V37.1662L27.9858 38.5877V0.217773H45.9732V6.71432H34.4825V15.444ZM70.1321 6.71447H63.392V36.5985C61.1994 36.5985 59.0068 36.5985 56.8958 36.6795V6.71447H50.1557V0.217773H70.1324L70.1321 6.71447ZM80.6889 14.9975H89.5812V21.4939H80.6889V36.2331H74.3138V0.217773H92.464V6.71432H80.6889V14.9975ZM103.021 30.5485C106.716 30.6294 110.451 30.9141 114.065 31.1168V37.5322C108.259 37.1665 102.452 36.8016 96.5244 36.6795V0.217773H103.021V30.5485ZM119.546 37.9789C121.617 38.1009 123.81 38.2227 125.921 38.466V0.217773H119.546V37.9789ZM154.384 0.217773L146.142 19.9917L154.384 41.7956C151.948 41.4708 149.512 41.0241 147.075 40.618L142.406 28.5997L137.656 39.6439C135.301 39.2375 133.027 39.1156 130.672 38.7908L139.036 19.7478L131.484 0.217773H138.467L142.731 11.1401L147.279 0.217773H154.384Z" fill="#666667"/>
</svg>
