<svg width="155" height="20" viewBox="0 0 155 20" fill="none" xmlns="http://www.w3.org/2000/svg">
<path d="M64.8864 12.9105H74.6886L69.5056 4.57177L59.9929 19.6486H55.6635L67.2341 1.5381C67.7372 0.806336 68.5756 0.364258 69.5056 0.364258C70.4049 0.364258 71.2434 0.791098 71.7312 1.5076L83.3475 19.6486H79.0181L76.9754 16.2795H67.0511L64.8864 12.9105ZM109.858 16.2795V0.547199H106.184V17.8192C106.184 18.2918 106.367 18.7492 106.717 19.0998C107.068 19.4504 107.541 19.6486 108.059 19.6486H124.813L126.977 16.2795H109.858ZM49.0779 13.4593C52.6451 13.4593 55.5416 10.5781 55.5416 7.01087C55.5416 3.44367 52.6451 0.547199 49.0779 0.547199H33.0055V19.6486H36.678V3.91622H48.834C50.5414 3.91622 51.9134 5.30346 51.9134 7.01087C51.9134 8.71825 50.5414 10.1055 48.834 10.1055L38.4769 10.0903L49.4437 19.6486H54.7794L47.401 13.4593L49.0779 13.4593ZM10.398 19.6486C5.12483 19.6486 0.845703 15.3801 0.845703 10.1055C0.845703 4.83091 5.12488 0.547199 10.398 0.547199H21.5005C26.7751 0.547199 31.0512 4.83091 31.0512 10.1055C31.0512 15.3801 26.7751 19.6486 21.5005 19.6486H10.398ZM21.2536 16.2795C24.6699 16.2795 27.4368 13.5203 27.4368 10.1055C27.4368 6.69073 24.6699 3.91622 21.2536 3.91622H10.6434C7.22862 3.91622 4.46014 6.69073 4.46014 10.1055C4.46014 13.5203 7.22862 16.2795 10.6434 16.2795H21.2536ZM91.0155 19.6486C85.7409 19.6486 81.4573 15.3801 81.4573 10.1055C81.4573 4.83091 85.7409 0.547199 91.0155 0.547199H104.202L102.053 3.91622H91.2595C87.8447 3.91622 85.0703 6.69073 85.0703 10.1055C85.0703 13.5203 87.8447 16.2795 91.2595 16.2795H104.507L102.342 19.6486H91.0155ZM135.941 16.2795C133.121 16.2795 130.728 14.3892 129.996 11.7824H145.698L147.862 8.41335H129.996C130.728 5.82179 133.121 3.91622 135.941 3.91622H146.719L148.899 0.547199H135.697C130.423 0.547199 126.139 4.83091 126.139 10.1055C126.139 15.3801 130.423 19.6486 135.697 19.6486H147.024L149.189 16.2795H135.941ZM150.866 2.57472C150.865 2.35433 150.908 2.13599 150.992 1.93224C151.076 1.7285 151.199 1.54339 151.355 1.38754C151.511 1.2317 151.696 1.1082 151.9 1.02416C152.104 0.940112 152.322 0.897176 152.542 0.897819C153.488 0.897819 154.234 1.6448 154.234 2.57472C154.234 3.51986 153.488 4.26684 152.542 4.26684C151.612 4.26684 150.866 3.51986 150.866 2.57472ZM152.542 4.73942C153.731 4.73942 154.692 3.77902 154.692 2.58996C154.692 1.40088 153.731 0.440477 152.542 0.440477C151.369 0.440477 150.408 1.40088 150.408 2.58996C150.408 3.77902 151.369 4.73942 152.542 4.73942ZM152.344 1.30942C152.68 1.30942 152.817 1.32466 152.969 1.38562C153.396 1.52284 153.442 1.90394 153.442 2.0564C153.442 2.08688 153.442 2.1631 153.411 2.25456C153.396 2.34604 153.335 2.52896 153.122 2.66616C153.091 2.68142 153.076 2.69666 153.015 2.72716L153.564 3.71804H153.03L152.542 2.80338H152.207V3.71804H151.734V1.30942H152.344ZM152.512 2.40702C152.664 2.39178 152.817 2.39178 152.908 2.25456C152.954 2.1936 152.969 2.13262 152.969 2.04116C152.969 1.9192 152.893 1.81248 152.786 1.7515C152.68 1.70578 152.573 1.70578 152.344 1.70578H152.207V2.40702H152.512Z" fill="#666667"/>
</svg>
