<svg xmlns="http://www.w3.org/2000/svg" width="655.359" height="655.359" fill-rule="evenodd" clip-rule="evenodd" image-rendering="optimizeQuality" shape-rendering="geometricPrecision" text-rendering="geometricPrecision" viewBox="0 0 6.827 6.827"><path fill-rule="nonzero" d="M5.653 3.413c-.362-.4-2.374-2.395-4.48 0 2.106 2.396 4.118.4 4.48 0zM.958 3.347c2.492-2.93 4.881-.036 4.91 0a.103.103 0 0 1 .001.133c-.007.008-2.405 2.941-4.909.003a.103.103 0 0 1-.002-.136z"/><path fill-rule="nonzero" d="M3.413 2.649a.762.762 0 0 1 .765.764.762.762 0 0 1-.765.765.762.762 0 0 1-.764-.765.762.762 0 0 1 .764-.764zm.395.37a.556.556 0 0 0-.953.394.556.556 0 0 0 .953.395.556.556 0 0 0 0-.789z"/><path fill="none" d="M0 0h6.827v6.827H0z"/></svg>