<svg width="32" height="32" viewBox="0 0 32 32" fill="none" xmlns="http://www.w3.org/2000/svg">
<path d="M0.570284 9.134C0.799963 9.0014 1.07291 8.96546 1.32908 9.0341C1.58526 9.10274 1.80367 9.27033 1.93628 9.5C2.55051 10.5647 3.43439 11.4487 4.49894 12.0632C5.56349 12.6776 6.77114 13.0007 8.00028 13C9.22943 13.0007 10.4371 12.6776 11.5016 12.0632C12.5662 11.4487 13.4501 10.5647 14.0643 9.5C14.1295 9.38535 14.2167 9.28473 14.3209 9.20393C14.4251 9.12313 14.5443 9.06374 14.6716 9.02919C14.7989 8.99464 14.9317 8.9856 15.0625 9.0026C15.1933 9.0196 15.3194 9.06229 15.4336 9.12824C15.5478 9.19418 15.6479 9.28206 15.728 9.38682C15.8081 9.49158 15.8667 9.61115 15.9004 9.73865C15.9341 9.86615 15.9423 9.99906 15.9244 10.1297C15.9065 10.2604 15.863 10.3862 15.7963 10.5C15.0065 11.8687 13.8702 13.0052 12.5016 13.7952C11.133 14.5852 9.5805 15.0007 8.00028 15C6.42007 15.0007 4.86755 14.5852 3.49897 13.7952C2.13039 13.0052 0.994039 11.8687 0.204285 10.5C0.0716829 10.2703 0.035748 9.99737 0.104386 9.7412C0.173024 9.48503 0.340611 9.26661 0.570284 9.134ZM6.00028 3C6.00028 4.656 5.10428 6 4.00028 6C2.89628 6 2.00028 4.656 2.00028 3C2.00028 1.344 2.89628 0 4.00028 0C5.10428 0 6.00028 1.344 6.00028 3ZM14.0003 3C14.0003 4.656 13.1043 6 12.0003 6C10.8963 6 10.0003 4.656 10.0003 3C10.0003 1.344 10.8963 0 12.0003 0C13.1043 0 14.0003 1.344 14.0003 3Z" fill="#2F3C7E"/><path d="M16 30C12.287 30 8.72601 28.525 6.1005 25.8995C3.475 23.274 2 19.713 2 16C2 12.287 3.475 8.72601 6.1005 6.1005C8.72601 3.475 12.287 2 16 2C19.713 2 23.274 3.475 25.8995 6.1005C28.525 8.72601 30 12.287 30 16C30 19.713 28.525 23.274 25.8995 25.8995C23.274 28.525 19.713 30 16 30ZM16 32C20.2435 32 24.3131 30.3143 27.3137 27.3137C30.3143 24.3131 32 20.2435 32 16C32 11.7565 30.3143 7.68687 27.3137 4.68629C24.3131 1.68571 20.2435 0 16 0C11.7565 0 7.68687 1.68571 4.68629 4.68629C1.68571 7.68687 0 11.7565 0 16C0 20.2435 1.68571 24.3131 4.68629 27.3137C7.68687 30.3143 11.7565 32 16 32Z" fill="#2F3C7E"/>
</svg>
